<svg xmlns="http://www.w3.org/2000/svg" width="118.917" height="60.117" viewBox="0 0 118.917 60.117">
    <path fill="#D50038" d="M110.723.006c-.075 0 .074-.002 0 0l-.11-.006h-48v16.167h18.804V51.73l.03-.302c-.014.2-.03.098-.03.303 0 4.465 3.62 8.387 8.083 8.387s8.083-3.922 8.083-8.386c0-.203-.016-.1-.03-.302l.03.303V16.168h13.14l-.112-.01c.075 0 .037.01.112.01 4.464 0 8.194-3.62 8.194-8.083s-3.73-8.078-8.193-8.078z"/>
    <path fill="#D50038" d="M118.917 8.083c0-4.352-3.547-7.886-7.862-8.06V0H62.612v.022c-4.315.175-7.862 3.71-7.862 8.06s3.547 7.892 7.862 8.068v.017H81.416V51.73c0 4.465 3.62 8.387 8.083 8.387s8.082-3.922 8.082-8.386V16.168h13.47v-.017c4.318-.175 7.865-3.714 7.865-8.067z"/>
    <path fill="#D6D700" d="M70.917 8.242v-.155-.004-.11h-.005C70.852 3.56 67.262 0 62.834 0c-4.427 0-8.018 3.56-8.078 7.974h-.006v.112l.005 44.057c.06 4.413 3.65 7.974 8.078 7.974 4.427 0 8.018-3.56 8.078-7.974h.006v-.107-.002-43.79z"/>
    <path fill="#3FA5AA" d="M42.174 3.585C40.647 1.675 38.302.45 35.667.45c-3.225 0-6.016 1.835-7.402 4.515L1.038 48.04l.017.01C.387 49.226 0 50.584 0 52.033c0 4.18 3.17 7.616 7.238 8.04v.044h27.376v-.033c4.158-.334 7.43-3.807 7.43-8.05 0-4.244-3.272-7.717-7.43-8.05v-.034H22.748l12.876-20.37 20.36 32.73c1.43 2.283 3.958 3.806 6.85 3.806 4.463 0 8.083-3.62 8.083-8.083 0-1.498-.415-2.895-1.124-4.098l.015-.01s-27.13-43.65-27.32-43.922l-.314-.418z"/>
</svg>
